<?xml version="1.0" encoding="UTF-8" standalone="no"?>
<svg
   viewBox="0 0 512 512"
   width="512"
   height="512"
   version="1.1"
   xmlns="http://www.w3.org/2000/svg">
  <g transform="translate(7, 25)">
    <polygon
       points="170,100 60,310 190,360"
       fill="none"
       stroke="#000000"
       stroke-width="4"
       stroke-linejoin="round" />
    <polygon
       points="170,100 190,360 300,290"
       fill="none"
       stroke="#000000"
       stroke-width="4"
       stroke-linejoin="round" />
    <g stroke="#000000" stroke-width="2.5" fill="none" stroke-linecap="round">
      <path d="M 131.5 173.5 Q 160 195 177 191" />
      <path d="M 177 191 Q 195 185 215.5 166.5" />
      <path d="M 104 226 Q 150 265 182 256" />
      <path d="M 182 256 Q 220 240 248 214" />
      <path d="M 76.5 278.5 Q 140 335 187 321" />
      <path d="M 187 321 Q 240 300 280.5 261.5" />
      <path d="M 170 100 Q 120 200 103 326.5" />
      <path d="M 170 100 Q 150 220 146 343" />
      <path d="M 170 100 Q 200 230 226 337" />
      <path d="M 170 100 Q 240 210 263 314" />
    </g>
    <polygon points="175,230 245,210 273,250" fill="#000000" />
    <polygon points="245,210 370,180 400,210 252,220" fill="#000000" fill-opacity="0.3" />
    <polygon points="252,220 400,210 430,240 259,230" fill="#000000" fill-opacity="0.3" />
    <polygon points="259,230 430,240 405,267.5 266,240" fill="#000000" fill-opacity="0.3" />
    <polygon points="266,240 405,267.5 380,295 273,250" fill="#000000" fill-opacity="0.3" />
    <path d="M 370 180 L 430 240 L 380 295" stroke="#000000" stroke-width="16" fill="none" stroke-linecap="round" stroke-linejoin="round" />
  </g>
</svg>
